<?xml version="1.0" encoding="UTF-8" standalone="no"?>
<!DOCTYPE svg PUBLIC "-//W3C//DTD SVG 1.1//EN"
 "http://www.w3.org/Graphics/SVG/1.1/DTD/svg11.dtd">
<!-- Generated by graphviz version 2.43.0 (0)
 -->
<!-- Title: %3 Pages: 1 -->
<svg width="1056pt" height="1115pt"
 viewBox="0.00 0.00 1056.00 1115.00" xmlns="http://www.w3.org/2000/svg" xmlns:xlink="http://www.w3.org/1999/xlink">
<g id="graph0" class="graph" transform="scale(1 1) rotate(0) translate(4 1111)">
<title>%3</title>
<polygon fill="white" stroke="transparent" points="-4,4 -4,-1111 1052,-1111 1052,4 -4,4"/>
<!-- /metadata -->
<g id="node1" class="node">
<title>/metadata</title>
<polygon fill="none" stroke="black" points="290,-530 287,-534 266,-534 263,-530 121,-530 121,-452 290,-452 290,-530"/>
<text text-anchor="start" x="165.5" y="-515.8" font-family="Times,serif" font-weight="bold" font-size="14.00">/metadata</text>
<text text-anchor="start" x="129" y="-501.8" font-family="Times,serif" font-size="14.00">metadata.csv</text>
<text text-anchor="start" x="129" y="-487.8" font-family="Times,serif" font-size="14.00">samples.list</text>
<text text-anchor="start" x="129" y="-473.8" font-family="Times,serif" font-size="14.00">cohort_1.sample.map</text>
<text text-anchor="start" x="129" y="-459.8" font-family="Times,serif" font-size="14.00">cohort_2.sample.map</text>
</g>
<!-- / -->
<g id="node2" class="node">
<title>/</title>
<polygon fill="none" stroke="black" points="54,-434 51,-438 30,-438 27,-434 0,-434 0,-398 54,-398 54,-434"/>
<text text-anchor="start" x="24" y="-413.3" font-family="Times,serif" font-weight="bold" font-size="14.00">/</text>
</g>
<!-- /&#45;&#45;/metadata -->
<g id="edge3" class="edge">
<title>/&#45;&#45;/metadata</title>
<path fill="none" stroke="black" d="M54.21,-427.51C65.25,-432.33 78.23,-437.97 90,-443 100.01,-447.28 110.53,-451.73 120.96,-456.14"/>
</g>
<!-- /analysis -->
<g id="node3" class="node">
<title>/analysis</title>
<polygon fill="none" stroke="black" points="248.5,-434 245.5,-438 224.5,-438 221.5,-434 162.5,-434 162.5,-398 248.5,-398 248.5,-434"/>
<text text-anchor="start" x="170.5" y="-413.3" font-family="Times,serif" font-weight="bold" font-size="14.00">/analysis</text>
</g>
<!-- /&#45;&#45;/analysis -->
<g id="edge2" class="edge">
<title>/&#45;&#45;/analysis</title>
<path fill="none" stroke="black" d="M54.04,-416C82.52,-416 128.59,-416 162.26,-416"/>
</g>
<!-- /data -->
<g id="node4" class="node">
<title>/data</title>
<polygon fill="none" stroke="black" points="321,-188 318,-192 297,-192 294,-188 90,-188 90,-68 321,-68 321,-188"/>
<text text-anchor="start" x="185.5" y="-173.8" font-family="Times,serif" font-weight="bold" font-size="14.00">/data</text>
<text text-anchor="start" x="98" y="-159.8" font-family="Times,serif" font-size="14.00">faster&#45;qdump_parallel.sh</text>
<text text-anchor="start" x="98" y="-145.8" font-family="Times,serif" font-size="14.00">faster&#45;qdump_sequential.sh</text>
<text text-anchor="start" x="98" y="-131.8" font-family="Times,serif" font-size="14.00">SRA.list</text>
<text text-anchor="start" x="98" y="-117.8" font-family="Times,serif" font-size="14.00">SRR.list</text>
<text text-anchor="start" x="98" y="-103.8" font-family="Times,serif" font-size="14.00">star_genome_index_builder.sh</text>
<text text-anchor="start" x="98" y="-89.8" font-family="Times,serif" font-size="14.00">star_aligner.sh</text>
<text text-anchor="start" x="98" y="-75.8" font-family="Times,serif" font-size="14.00">star_aligner_2nd_pass.sh</text>
</g>
<!-- /&#45;&#45;/data -->
<g id="edge1" class="edge">
<title>/&#45;&#45;/data</title>
<path fill="none" stroke="black" d="M39.04,-397.98C64.25,-356.85 126.98,-254.49 167.55,-188.29"/>
</g>
<!-- /STAR -->
<g id="node6" class="node">
<title>/STAR</title>
<polygon fill="none" stroke="black" points="637.5,-1014 634.5,-1018 613.5,-1018 610.5,-1014 366.5,-1014 366.5,-950 637.5,-950 637.5,-1014"/>
<text text-anchor="start" x="478" y="-999.8" font-family="Times,serif" font-weight="bold" font-size="14.00">/STAR</text>
<text text-anchor="start" x="374.5" y="-985.8" font-family="Times,serif" font-size="14.00">star_genome_index_builder.sh</text>
<text text-anchor="start" x="374.5" y="-971.8" font-family="Times,serif" font-size="14.00">Bos_taurus.UMD3.1.87.gtf</text>
<text text-anchor="start" x="374.5" y="-957.8" font-family="Times,serif" font-size="14.00">Bos_taurus.UMD3.1.dna.toplevel.fa</text>
</g>
<!-- /analysis&#45;&#45;/STAR -->
<g id="edge11" class="edge">
<title>/analysis&#45;&#45;/STAR</title>
<path fill="none" stroke="black" d="M248.76,-414.42C273.62,-415.94 303.52,-422.48 321,-443 392.96,-527.46 286.99,-854.92 357,-941 359.87,-944.53 363.02,-947.77 366.4,-950.74"/>
</g>
<!-- /addReadGroups -->
<g id="node8" class="node">
<title>/addReadGroups</title>
<polygon fill="none" stroke="black" points="618.5,-932 615.5,-936 594.5,-936 591.5,-932 385.5,-932 385.5,-854 618.5,-854 618.5,-932"/>
<text text-anchor="start" x="436.5" y="-917.8" font-family="Times,serif" font-weight="bold" font-size="14.00">/addReadGroups</text>
<text text-anchor="start" x="393.5" y="-903.8" font-family="Times,serif" font-size="14.00">addOrReplaceReadsGroups.sh</text>
<text text-anchor="start" x="393.5" y="-889.8" font-family="Times,serif" font-size="14.00">RGLB.txt</text>
<text text-anchor="start" x="393.5" y="-875.8" font-family="Times,serif" font-size="14.00">RGPU.txt</text>
<text text-anchor="start" x="393.5" y="-861.8" font-family="Times,serif" font-size="14.00">SRR5487372.bam</text>
</g>
<!-- /analysis&#45;&#45;/addReadGroups -->
<g id="edge8" class="edge">
<title>/analysis&#45;&#45;/addReadGroups</title>
<path fill="none" stroke="black" d="M248.64,-414.53C273.45,-416.09 303.34,-422.63 321,-443 379.75,-510.77 301.36,-774.65 357,-845 364.77,-854.82 374.61,-862.64 385.49,-868.88"/>
</g>
<!-- /BaseQualityRecalibration -->
<g id="node9" class="node">
<title>/BaseQualityRecalibration</title>
<polygon fill="none" stroke="black" points="640.5,-836 637.5,-840 616.5,-840 613.5,-836 363.5,-836 363.5,-660 640.5,-660 640.5,-836"/>
<text text-anchor="start" x="398" y="-821.8" font-family="Times,serif" font-weight="bold" font-size="14.00">/BaseQualityRecalibration</text>
<text text-anchor="start" x="371.5" y="-807.8" font-family="Times,serif" font-size="14.00">BaseRecalibrator_first_step.sh</text>
<text text-anchor="start" x="371.5" y="-793.8" font-family="Times,serif" font-size="14.00">BaseRecalibrator_second_step.sh</text>
<text text-anchor="start" x="371.5" y="-779.8" font-family="Times,serif" font-size="14.00">ApplyBQSR.sh</text>
<text text-anchor="start" x="371.5" y="-765.8" font-family="Times,serif" font-size="14.00">AnalyzeCovariates.sh</text>
<text text-anchor="start" x="371.5" y="-751.8" font-family="Times,serif" font-size="14.00">AnalyzeCovariates_SRR5487402.pdf</text>
<text text-anchor="start" x="371.5" y="-737.8" font-family="Times,serif" font-size="14.00">snp50.vcf.gz</text>
<text text-anchor="start" x="371.5" y="-723.8" font-family="Times,serif" font-size="14.00">snp50.vcf.gz.tbi</text>
<text text-anchor="start" x="371.5" y="-709.8" font-family="Times,serif" font-size="14.00">SRR5487372_recal.bai</text>
<text text-anchor="start" x="371.5" y="-695.8" font-family="Times,serif" font-size="14.00">SRR5487372_recal.bam</text>
<text text-anchor="start" x="371.5" y="-681.8" font-family="Times,serif" font-size="14.00">SRR5487372_recal_data.table</text>
<text text-anchor="start" x="371.5" y="-667.8" font-family="Times,serif" font-size="14.00">SRR5487372_recal_data2.table</text>
</g>
<!-- /analysis&#45;&#45;/BaseQualityRecalibration -->
<g id="edge13" class="edge">
<title>/analysis&#45;&#45;/BaseQualityRecalibration</title>
<path fill="none" stroke="black" d="M248.62,-415.09C273.11,-416.91 302.66,-423.52 321,-443 385.31,-511.31 306,-572.25 357,-651 358.97,-654.04 361.06,-657 363.28,-659.89"/>
</g>
<!-- /SplitNCigarReads -->
<g id="node10" class="node">
<title>/SplitNCigarReads</title>
<polygon fill="none" stroke="black" points="642.5,-642 639.5,-646 618.5,-646 615.5,-642 361.5,-642 361.5,-508 642.5,-508 642.5,-642"/>
<text text-anchor="start" x="429" y="-627.8" font-family="Times,serif" font-weight="bold" font-size="14.00">/SplitNCigarReads</text>
<text text-anchor="start" x="369.5" y="-613.8" font-family="Times,serif" font-size="14.00">UMD3.1_chromosomes.fa</text>
<text text-anchor="start" x="369.5" y="-599.8" font-family="Times,serif" font-size="14.00">Ensembl79_UMD3.1_genes.gff3</text>
<text text-anchor="start" x="369.5" y="-585.8" font-family="Times,serif" font-size="14.00">refGenome.dict</text>
<text text-anchor="start" x="369.5" y="-571.8" font-family="Times,serif" font-size="14.00">refGenome.fasta</text>
<text text-anchor="start" x="369.5" y="-557.8" font-family="Times,serif" font-size="14.00">refGenome.fasta.fai</text>
<text text-anchor="start" x="369.5" y="-543.8" font-family="Times,serif" font-size="14.00">SplitNCigarReads.sh</text>
<text text-anchor="start" x="369.5" y="-529.8" font-family="Times,serif" font-size="14.00">SRR5487372_SplitNCigarReads.bam</text>
<text text-anchor="start" x="369.5" y="-515.8" font-family="Times,serif" font-size="14.00">SRR5487372_SplitNCigarReads.bai</text>
</g>
<!-- /analysis&#45;&#45;/SplitNCigarReads -->
<g id="edge9" class="edge">
<title>/analysis&#45;&#45;/SplitNCigarReads</title>
<path fill="none" stroke="black" d="M248.56,-418.29C271.7,-421.32 299.91,-428.08 321,-443 345.16,-460.08 335.2,-478.99 357,-499 360.33,-502.06 363.81,-505.03 367.4,-507.92"/>
</g>
<!-- /GenomicsDBImport -->
<g id="node11" class="node">
<title>/GenomicsDBImport</title>
<polygon fill="none" stroke="black" points="591,-490 588,-494 567,-494 564,-490 413,-490 413,-342 591,-342 591,-490"/>
<text text-anchor="start" x="421" y="-475.8" font-family="Times,serif" font-weight="bold" font-size="14.00">/GenomicsDBImport</text>
<text text-anchor="start" x="421" y="-461.8" font-family="Times,serif" font-size="14.00">GenomicsDBImport.sh</text>
<text text-anchor="start" x="421" y="-447.8" font-family="Times,serif" font-size="14.00">GenotypeGVCF.sh</text>
<text text-anchor="start" x="421" y="-433.8" font-family="Times,serif" font-size="14.00">output.vcf.gz</text>
<text text-anchor="start" x="421" y="-419.8" font-family="Times,serif" font-size="14.00">output.vcf.gz.tbi</text>
<text text-anchor="start" x="421" y="-405.8" font-family="Times,serif" font-size="14.00">filtered.vcf.gz</text>
<text text-anchor="start" x="421" y="-391.8" font-family="Times,serif" font-size="14.00">filtered_1.vcf.gz</text>
<text text-anchor="start" x="421" y="-377.8" font-family="Times,serif" font-size="14.00">filtered_2.vcf.gz</text>
<text text-anchor="start" x="421" y="-363.8" font-family="Times,serif" font-size="14.00">filtered_3.vcf.gz</text>
<text text-anchor="start" x="421" y="-349.8" font-family="Times,serif" font-size="14.00">filtered_4.vcf.gz</text>
</g>
<!-- /analysis&#45;&#45;/GenomicsDBImport -->
<g id="edge6" class="edge">
<title>/analysis&#45;&#45;/GenomicsDBImport</title>
<path fill="none" stroke="black" d="M248.69,-411.1C291.32,-409.22 358.45,-408.77 412.75,-409.76"/>
</g>
<!-- /analysis&#45;&#45;/GenomicsDBImport -->
<g id="edge10" class="edge">
<title>/analysis&#45;&#45;/GenomicsDBImport</title>
<path fill="none" stroke="black" d="M248.69,-420.9C291.32,-422.78 358.45,-423.23 412.75,-422.24"/>
</g>
<!-- /MarkDuplicates -->
<g id="node12" class="node">
<title>/MarkDuplicates</title>
<polygon fill="none" stroke="black" points="647,-324 644,-328 623,-328 620,-324 357,-324 357,-260 647,-260 647,-324"/>
<text text-anchor="start" x="436" y="-309.8" font-family="Times,serif" font-weight="bold" font-size="14.00">/MarkDuplicates</text>
<text text-anchor="start" x="365" y="-295.8" font-family="Times,serif" font-size="14.00">MarkDuplicates.sh</text>
<text text-anchor="start" x="365" y="-281.8" font-family="Times,serif" font-size="14.00">SRR5487372_marked_duplicates.bam</text>
<text text-anchor="start" x="365" y="-267.8" font-family="Times,serif" font-size="14.00">SRR5487372_marked_dup_metrics.txt</text>
</g>
<!-- /analysis&#45;&#45;/MarkDuplicates -->
<g id="edge7" class="edge">
<title>/analysis&#45;&#45;/MarkDuplicates</title>
<path fill="none" stroke="black" d="M234.67,-397.92C264.21,-379.58 312.44,-351.35 357,-333 364.57,-329.88 372.46,-326.91 380.47,-324.1"/>
</g>
<!-- /GVCF -->
<g id="node13" class="node">
<title>/GVCF</title>
<polygon fill="none" stroke="black" points="613,-242 610,-246 589,-246 586,-242 391,-242 391,-178 613,-178 613,-242"/>
<text text-anchor="start" x="477.5" y="-227.8" font-family="Times,serif" font-weight="bold" font-size="14.00">/GVCF</text>
<text text-anchor="start" x="399" y="-213.8" font-family="Times,serif" font-size="14.00">singleSampleGVCFcalling.sh</text>
<text text-anchor="start" x="399" y="-199.8" font-family="Times,serif" font-size="14.00">SRR5487372.g.vcf.gz</text>
<text text-anchor="start" x="399" y="-185.8" font-family="Times,serif" font-size="14.00">SRR5487372.g.vcf.gz.tbi</text>
</g>
<!-- /analysis&#45;&#45;/GVCF -->
<g id="edge12" class="edge">
<title>/analysis&#45;&#45;/GVCF</title>
<path fill="none" stroke="black" d="M217.97,-397.83C240.42,-363.79 293.54,-290.29 357,-251 367.5,-244.5 379.06,-239 390.92,-234.36"/>
</g>
<!-- /SRR5487372 -->
<g id="node5" class="node">
<title>/SRR5487372</title>
<polygon fill="none" stroke="black" points="585.5,-160 582.5,-164 561.5,-164 558.5,-160 418.5,-160 418.5,-96 585.5,-96 585.5,-160"/>
<text text-anchor="start" x="448" y="-145.8" font-family="Times,serif" font-weight="bold" font-size="14.00">/SRR5487372</text>
<text text-anchor="start" x="426.5" y="-131.8" font-family="Times,serif" font-size="14.00">SRR5487372.sra</text>
<text text-anchor="start" x="426.5" y="-117.8" font-family="Times,serif" font-size="14.00">SRR5487372_1.fastq</text>
<text text-anchor="start" x="426.5" y="-103.8" font-family="Times,serif" font-size="14.00">SRR5487372_2.fastq</text>
</g>
<!-- /data&#45;&#45;/SRR5487372 -->
<g id="edge4" class="edge">
<title>/data&#45;&#45;/SRR5487372</title>
<path fill="none" stroke="black" d="M321.2,-128C353.51,-128 388.01,-128 418.06,-128"/>
</g>
<!-- /Bos_taurus.UMD3.1.87_index -->
<g id="node7" class="node">
<title>/Bos_taurus.UMD3.1.87_index</title>
<polygon fill="none" stroke="black" points="628,-78 625,-82 604,-82 601,-78 376,-78 376,0 628,0 628,-78"/>
<text text-anchor="start" x="384" y="-63.8" font-family="Times,serif" font-weight="bold" font-size="14.00">/Bos_taurus.UMD3.1.87_index</text>
<text text-anchor="start" x="384" y="-49.8" font-family="Times,serif" font-size="14.00">chrLength.txt</text>
<text text-anchor="start" x="384" y="-35.8" font-family="Times,serif" font-size="14.00">chrNameLength.txt</text>
<text text-anchor="start" x="384" y="-21.8" font-family="Times,serif" font-size="14.00">chrName.txt</text>
<text text-anchor="start" x="384" y="-7.8" font-family="Times,serif" font-size="14.00">chrStart.txt</text>
</g>
<!-- /data&#45;&#45;/Bos_taurus.UMD3.1.87_index -->
<g id="edge5" class="edge">
<title>/data&#45;&#45;/Bos_taurus.UMD3.1.87_index</title>
<path fill="none" stroke="black" d="M321.2,-93.34C339.13,-87.92 357.74,-82.3 375.88,-76.81"/>
</g>
<!-- /output -->
<g id="node14" class="node">
<title>/output</title>
<polygon fill="none" stroke="black" points="1048,-1107 1045,-1111 1024,-1111 1021,-1107 683,-1107 683,-1001 1048,-1001 1048,-1107"/>
<text text-anchor="start" x="836" y="-1092.8" font-family="Times,serif" font-weight="bold" font-size="14.00">/output</text>
<text text-anchor="start" x="691" y="-1078.8" font-family="Times,serif" font-size="14.00">SRR5487372Aligned.sortedByCoord.out.bam</text>
<text text-anchor="start" x="691" y="-1064.8" font-family="Times,serif" font-size="14.00">SRR5487372Aligned.sortedByCoord.out.bam.bai</text>
<text text-anchor="start" x="691" y="-1050.8" font-family="Times,serif" font-size="14.00">SRR5487372Log.final.out</text>
<text text-anchor="start" x="691" y="-1036.8" font-family="Times,serif" font-size="14.00">SRR5487372Log.out</text>
<text text-anchor="start" x="691" y="-1022.8" font-family="Times,serif" font-size="14.00">SRR5487372Log.progress.out</text>
<text text-anchor="start" x="691" y="-1008.8" font-family="Times,serif" font-size="14.00">SRR5487372SJ.out.tab</text>
</g>
<!-- /STAR&#45;&#45;/output -->
<g id="edge14" class="edge">
<title>/STAR&#45;&#45;/output</title>
<path fill="none" stroke="black" d="M637.61,-1008.81C652.36,-1011.75 667.56,-1014.78 682.76,-1017.8"/>
</g>
<!-- /output_2nd_pass -->
<g id="node15" class="node">
<title>/output_2nd_pass</title>
<polygon fill="none" stroke="black" points="1048,-983 1045,-987 1024,-987 1021,-983 683,-983 683,-835 1048,-835 1048,-983"/>
<text text-anchor="start" x="796.5" y="-968.8" font-family="Times,serif" font-weight="bold" font-size="14.00">/output_2nd_pass</text>
<text text-anchor="start" x="691" y="-954.8" font-family="Times,serif" font-size="14.00">bam.list</text>
<text text-anchor="start" x="691" y="-940.8" font-family="Times,serif" font-size="14.00">samtools_batch_index.sh</text>
<text text-anchor="start" x="691" y="-926.8" font-family="Times,serif" font-size="14.00">samtools_sort_bam.sh</text>
<text text-anchor="start" x="691" y="-912.8" font-family="Times,serif" font-size="14.00">SRR5487372Aligned.sortedByCoord.out.bam</text>
<text text-anchor="start" x="691" y="-898.8" font-family="Times,serif" font-size="14.00">SRR5487372Aligned.sortedByCoord.out.bam.bai</text>
<text text-anchor="start" x="691" y="-884.8" font-family="Times,serif" font-size="14.00">SRR5487372Log.final.out</text>
<text text-anchor="start" x="691" y="-870.8" font-family="Times,serif" font-size="14.00">SRR5487372Log.out</text>
<text text-anchor="start" x="691" y="-856.8" font-family="Times,serif" font-size="14.00">SRR5487372Log.progress.out</text>
<text text-anchor="start" x="691" y="-842.8" font-family="Times,serif" font-size="14.00">SRR5487372SJ.out.tab</text>
</g>
<!-- /STAR&#45;&#45;/output_2nd_pass -->
<g id="edge15" class="edge">
<title>/STAR&#45;&#45;/output_2nd_pass</title>
<path fill="none" stroke="black" d="M637.61,-954.82C652.36,-951.84 667.56,-948.77 682.76,-945.7"/>
</g>
<!-- /gatk_tmp -->
<g id="node16" class="node">
<title>/gatk_tmp</title>
<polygon fill="none" stroke="black" points="913,-593 910,-597 889,-597 886,-593 818,-593 818,-557 913,-557 913,-593"/>
<text text-anchor="start" x="826" y="-572.3" font-family="Times,serif" font-weight="bold" font-size="14.00">/gatk_tmp</text>
</g>
<!-- /SplitNCigarReads&#45;&#45;/gatk_tmp -->
<g id="edge16" class="edge">
<title>/SplitNCigarReads&#45;&#45;/gatk_tmp</title>
<path fill="none" stroke="black" d="M642.51,-575C704.53,-575 773.4,-575 817.74,-575"/>
</g>
<!-- /dbi_tmp -->
<g id="node17" class="node">
<title>/dbi_tmp</title>
<polygon fill="none" stroke="black" points="892.5,-461 889.5,-465 868.5,-465 865.5,-461 838.5,-461 838.5,-425 892.5,-425 892.5,-461"/>
<text text-anchor="start" x="847" y="-440.3" font-family="Times,serif" font-weight="bold" font-size="14.00">/tmp</text>
</g>
<!-- /GenomicsDBImport&#45;&#45;/dbi_tmp -->
<g id="edge18" class="edge">
<title>/GenomicsDBImport&#45;&#45;/dbi_tmp</title>
<path fill="none" stroke="black" d="M591.43,-422.6C672.54,-428.66 787.53,-437.25 838.48,-441.06"/>
</g>
<!-- /my_database -->
<g id="node18" class="node">
<title>/my_database</title>
<polygon fill="none" stroke="black" points="926.5,-407 923.5,-411 902.5,-411 899.5,-407 804.5,-407 804.5,-371 926.5,-371 926.5,-407"/>
<text text-anchor="start" x="812.5" y="-386.3" font-family="Times,serif" font-weight="bold" font-size="14.00">/my_database</text>
</g>
<!-- /GenomicsDBImport&#45;&#45;/my_database -->
<g id="edge17" class="edge">
<title>/GenomicsDBImport&#45;&#45;/my_database</title>
<path fill="none" stroke="black" d="M591.43,-409.4C657.59,-404.45 746.3,-397.83 804.4,-393.49"/>
</g>
</g>
</svg>
