<?xml version="1.0" encoding="UTF-8" standalone="no"?>
<!DOCTYPE svg PUBLIC "-//W3C//DTD SVG 1.1//EN"
 "http://www.w3.org/Graphics/SVG/1.1/DTD/svg11.dtd">
<!-- Generated by graphviz version 2.43.0 (0)
 -->
<!-- Title: %3 Pages: 1 -->
<svg width="1048pt" height="870pt"
 viewBox="0.00 0.00 1048.00 870.00" xmlns="http://www.w3.org/2000/svg" xmlns:xlink="http://www.w3.org/1999/xlink">
<g id="graph0" class="graph" transform="scale(1 1) rotate(0) translate(4 866)">
<title>%3</title>
<polygon fill="white" stroke="transparent" points="-4,4 -4,-866 1044,-866 1044,4 -4,4"/>
<!-- /metadata -->
<g id="node1" class="node">
<title>/metadata</title>
<polygon fill="none" stroke="black" points="295.5,-474 292.5,-478 271.5,-478 268.5,-474 126.5,-474 126.5,-410 295.5,-410 295.5,-474"/>
<text text-anchor="start" x="171" y="-459.8" font-family="Times,serif" font-weight="bold" font-size="14.00">/metadata</text>
<text text-anchor="start" x="134.5" y="-445.8" font-family="Times,serif" font-size="14.00">samples.list</text>
<text text-anchor="start" x="134.5" y="-431.8" font-family="Times,serif" font-size="14.00">cohort_1.sample.map</text>
<text text-anchor="start" x="134.5" y="-417.8" font-family="Times,serif" font-size="14.00">cohort_2.sample.map</text>
</g>
<!-- / -->
<g id="node2" class="node">
<title>/</title>
<polygon fill="none" stroke="black" points="54,-392 51,-396 30,-396 27,-392 0,-392 0,-356 54,-356 54,-392"/>
<text text-anchor="start" x="24" y="-371.3" font-family="Times,serif" font-weight="bold" font-size="14.00">/</text>
</g>
<!-- /&#45;&#45;/metadata -->
<g id="edge3" class="edge">
<title>/&#45;&#45;/metadata</title>
<path fill="none" stroke="black" d="M54.05,-385.91C65.06,-390.79 78.07,-396.37 90,-401 101.7,-405.54 114.14,-410.09 126.41,-414.42"/>
</g>
<!-- /analysis -->
<g id="node3" class="node">
<title>/analysis</title>
<polygon fill="none" stroke="black" points="254,-392 251,-396 230,-396 227,-392 168,-392 168,-356 254,-356 254,-392"/>
<text text-anchor="start" x="176" y="-371.3" font-family="Times,serif" font-weight="bold" font-size="14.00">/analysis</text>
</g>
<!-- /&#45;&#45;/analysis -->
<g id="edge2" class="edge">
<title>/&#45;&#45;/analysis</title>
<path fill="none" stroke="black" d="M54.08,-374C83.76,-374 132.67,-374 167.81,-374"/>
</g>
<!-- /data -->
<g id="node4" class="node">
<title>/data</title>
<polygon fill="none" stroke="black" points="332,-167 329,-171 308,-171 305,-167 90,-167 90,-5 332,-5 332,-167"/>
<text text-anchor="start" x="191" y="-152.8" font-family="Times,serif" font-weight="bold" font-size="14.00">/data</text>
<text text-anchor="start" x="98" y="-138.8" font-family="Times,serif" font-size="14.00">fasterq&#45;dump.sh</text>
<text text-anchor="start" x="98" y="-124.8" font-family="Times,serif" font-size="14.00">SRA.list</text>
<text text-anchor="start" x="98" y="-110.8" font-family="Times,serif" font-size="14.00">SRR.list</text>
<text text-anchor="start" x="98" y="-96.8" font-family="Times,serif" font-size="14.00">star_genome_index_builder.sh</text>
<text text-anchor="start" x="98" y="-82.8" font-family="Times,serif" font-size="14.00">star_aligner_batch.sh</text>
<text text-anchor="start" x="98" y="-68.8" font-family="Times,serif" font-size="14.00">star_aligner_batch_2nd_pass.sh</text>
<text text-anchor="start" x="98" y="-54.8" font-family="Times,serif" font-size="14.00">STAR_aligner_1st_pass.1.log</text>
<text text-anchor="start" x="98" y="-40.8" font-family="Times,serif" font-size="14.00">STAR_aligner_2nd_pass.1.logg</text>
<text text-anchor="start" x="98" y="-26.8" font-family="Times,serif" font-size="14.00">UMD3.1_chromosomes.fa</text>
<text text-anchor="start" x="98" y="-12.8" font-family="Times,serif" font-size="14.00">UMD3.1_chromosomes_e.fa</text>
</g>
<!-- /&#45;&#45;/data -->
<g id="edge1" class="edge">
<title>/&#45;&#45;/data</title>
<path fill="none" stroke="black" d="M39.38,-355.98C62.77,-318.98 117.48,-232.41 158.68,-167.2"/>
</g>
<!-- /STAR -->
<g id="node6" class="node">
<title>/STAR</title>
<polygon fill="none" stroke="black" points="639,-776 636,-780 615,-780 612,-776 368,-776 368,-712 639,-712 639,-776"/>
<text text-anchor="start" x="479.5" y="-761.8" font-family="Times,serif" font-weight="bold" font-size="14.00">/STAR</text>
<text text-anchor="start" x="376" y="-747.8" font-family="Times,serif" font-size="14.00">star_genome_index_builder.sh</text>
<text text-anchor="start" x="376" y="-733.8" font-family="Times,serif" font-size="14.00">Bos_taurus.UMD3.1.87.gtf</text>
<text text-anchor="start" x="376" y="-719.8" font-family="Times,serif" font-size="14.00">Bos_taurus.UMD3.1.dna.toplevel.fa</text>
</g>
<!-- /analysis&#45;&#45;/STAR -->
<g id="edge11" class="edge">
<title>/analysis&#45;&#45;/STAR</title>
<path fill="none" stroke="black" d="M254.14,-372.05C280.37,-373.26 312.69,-379.6 332,-401 422.55,-501.36 281.25,-599.33 368,-703 370.66,-706.18 373.57,-709.12 376.66,-711.84"/>
</g>
<!-- /addReadGroups -->
<g id="node8" class="node">
<title>/addReadGroups</title>
<polygon fill="none" stroke="black" points="620,-694 617,-698 596,-698 593,-694 387,-694 387,-658 620,-658 620,-694"/>
<text text-anchor="start" x="438" y="-679.8" font-family="Times,serif" font-weight="bold" font-size="14.00">/addReadGroups</text>
<text text-anchor="start" x="395" y="-665.8" font-family="Times,serif" font-size="14.00">addOrReplaceReadsGroups.sh</text>
</g>
<!-- /analysis&#45;&#45;/addReadGroups -->
<g id="edge8" class="edge">
<title>/analysis&#45;&#45;/addReadGroups</title>
<path fill="none" stroke="black" d="M254.25,-372.23C280.36,-373.54 312.49,-379.92 332,-401 407.66,-482.73 291.4,-568.15 368,-649 373.49,-654.79 379.84,-659.53 386.74,-663.39"/>
</g>
<!-- /BaseQualityRecalibration -->
<g id="node9" class="node">
<title>/BaseQualityRecalibration</title>
<polygon fill="none" stroke="black" points="620.5,-640 617.5,-644 596.5,-644 593.5,-640 386.5,-640 386.5,-506 620.5,-506 620.5,-640"/>
<text text-anchor="start" x="399.5" y="-625.8" font-family="Times,serif" font-weight="bold" font-size="14.00">/BaseQualityRecalibration</text>
<text text-anchor="start" x="394.5" y="-611.8" font-family="Times,serif" font-size="14.00">BaseRecalibrator_first_step.sh</text>
<text text-anchor="start" x="394.5" y="-597.8" font-family="Times,serif" font-size="14.00">ApplyBQSR_second_step.sh</text>
<text text-anchor="start" x="394.5" y="-583.8" font-family="Times,serif" font-size="14.00">AnalyzeCovariates.sh</text>
<text text-anchor="start" x="394.5" y="-569.8" font-family="Times,serif" font-size="14.00">refGenome.dict</text>
<text text-anchor="start" x="394.5" y="-555.8" font-family="Times,serif" font-size="14.00">refGenome.fasta</text>
<text text-anchor="start" x="394.5" y="-541.8" font-family="Times,serif" font-size="14.00">refGenome.fasta.fai</text>
<text text-anchor="start" x="394.5" y="-527.8" font-family="Times,serif" font-size="14.00">known_sites.vcf</text>
<text text-anchor="start" x="394.5" y="-513.8" font-family="Times,serif" font-size="14.00">known_sites.vcf.idx</text>
</g>
<!-- /analysis&#45;&#45;/BaseQualityRecalibration -->
<g id="edge13" class="edge">
<title>/analysis&#45;&#45;/BaseQualityRecalibration</title>
<path fill="none" stroke="black" d="M254.23,-373.83C279.51,-375.88 310.75,-382.48 332,-401 366.36,-430.93 338.38,-462.37 368,-497 373.49,-503.42 379.67,-509.41 386.28,-514.98"/>
</g>
<!-- /SplitNCigarReads -->
<g id="node10" class="node">
<title>/SplitNCigarReads</title>
<polygon fill="none" stroke="black" points="586.5,-488 583.5,-492 562.5,-492 559.5,-488 420.5,-488 420.5,-452 586.5,-452 586.5,-488"/>
<text text-anchor="start" x="430.5" y="-473.8" font-family="Times,serif" font-weight="bold" font-size="14.00">/SplitNCigarReads</text>
<text text-anchor="start" x="428.5" y="-459.8" font-family="Times,serif" font-size="14.00">SplitNCigarReads.sh</text>
</g>
<!-- /analysis&#45;&#45;/SplitNCigarReads -->
<g id="edge9" class="edge">
<title>/analysis&#45;&#45;/SplitNCigarReads</title>
<path fill="none" stroke="black" d="M254.15,-376.89C278.35,-380.1 308.49,-386.85 332,-401 353.07,-413.68 346.79,-430.57 368,-443 383.82,-452.27 402.29,-458.41 420.39,-462.46"/>
</g>
<!-- /GenomicsDBImport -->
<g id="node11" class="node">
<title>/GenomicsDBImport</title>
<polygon fill="none" stroke="black" points="592.5,-434 589.5,-438 568.5,-438 565.5,-434 414.5,-434 414.5,-314 592.5,-314 592.5,-434"/>
<text text-anchor="start" x="422.5" y="-419.8" font-family="Times,serif" font-weight="bold" font-size="14.00">/GenomicsDBImport</text>
<text text-anchor="start" x="422.5" y="-405.8" font-family="Times,serif" font-size="14.00">GenomicsDBImport.sh</text>
<text text-anchor="start" x="422.5" y="-391.8" font-family="Times,serif" font-size="14.00">GenotypeGVCF.sh</text>
<text text-anchor="start" x="422.5" y="-377.8" font-family="Times,serif" font-size="14.00">refGenome.dict</text>
<text text-anchor="start" x="422.5" y="-363.8" font-family="Times,serif" font-size="14.00">refGenome.fasta</text>
<text text-anchor="start" x="422.5" y="-349.8" font-family="Times,serif" font-size="14.00">refGenome.fasta.fai</text>
<text text-anchor="start" x="422.5" y="-335.8" font-family="Times,serif" font-size="14.00">output.vcf.gz</text>
<text text-anchor="start" x="422.5" y="-321.8" font-family="Times,serif" font-size="14.00">output.vcf.gz.tbi</text>
</g>
<!-- /analysis&#45;&#45;/GenomicsDBImport -->
<g id="edge6" class="edge">
<title>/analysis&#45;&#45;/GenomicsDBImport</title>
<path fill="none" stroke="black" d="M254.24,-369.07C296.02,-367.23 361.23,-366.78 414.33,-367.74"/>
</g>
<!-- /analysis&#45;&#45;/GenomicsDBImport -->
<g id="edge10" class="edge">
<title>/analysis&#45;&#45;/GenomicsDBImport</title>
<path fill="none" stroke="black" d="M254.24,-378.93C296.02,-380.77 361.23,-381.22 414.33,-380.26"/>
</g>
<!-- /MarkDuplicates -->
<g id="node12" class="node">
<title>/MarkDuplicates</title>
<polygon fill="none" stroke="black" points="577.5,-296 574.5,-300 553.5,-300 550.5,-296 429.5,-296 429.5,-232 577.5,-232 577.5,-296"/>
<text text-anchor="start" x="437.5" y="-281.8" font-family="Times,serif" font-weight="bold" font-size="14.00">/MarkDuplicates</text>
<text text-anchor="start" x="437.5" y="-267.8" font-family="Times,serif" font-size="14.00">line 2</text>
<text text-anchor="start" x="437.5" y="-253.8" font-family="Times,serif" font-size="14.00">line 3</text>
<text text-anchor="start" x="437.5" y="-239.8" font-family="Times,serif" font-size="14.00">line 3</text>
</g>
<!-- /analysis&#45;&#45;/MarkDuplicates -->
<g id="edge7" class="edge">
<title>/analysis&#45;&#45;/MarkDuplicates</title>
<path fill="none" stroke="black" d="M249.3,-355.98C280.58,-341.24 326.64,-320.39 368,-305 387.68,-297.68 409.31,-290.65 429.37,-284.54"/>
</g>
<!-- /GVCF -->
<g id="node13" class="node">
<title>/GVCF</title>
<polygon fill="none" stroke="black" points="614.5,-214 611.5,-218 590.5,-218 587.5,-214 392.5,-214 392.5,-136 614.5,-136 614.5,-214"/>
<text text-anchor="start" x="479" y="-199.8" font-family="Times,serif" font-weight="bold" font-size="14.00">/GVCF</text>
<text text-anchor="start" x="400.5" y="-185.8" font-family="Times,serif" font-size="14.00">singleSampleGVCFcalling.sh</text>
<text text-anchor="start" x="400.5" y="-171.8" font-family="Times,serif" font-size="14.00">refGenome.dict</text>
<text text-anchor="start" x="400.5" y="-157.8" font-family="Times,serif" font-size="14.00">refGenome.fasta</text>
<text text-anchor="start" x="400.5" y="-143.8" font-family="Times,serif" font-size="14.00">refGenome.fasta.fai</text>
</g>
<!-- /analysis&#45;&#45;/GVCF -->
<g id="edge12" class="edge">
<title>/analysis&#45;&#45;/GVCF</title>
<path fill="none" stroke="black" d="M226.43,-355.61C251.89,-324.3 307.81,-260.4 368,-223 375.69,-218.22 383.92,-213.83 392.38,-209.82"/>
</g>
<!-- /SRR5487372 -->
<g id="node5" class="node">
<title>/SRR5487372</title>
<polygon fill="none" stroke="black" points="587,-118 584,-122 563,-122 560,-118 420,-118 420,-54 587,-54 587,-118"/>
<text text-anchor="start" x="449.5" y="-103.8" font-family="Times,serif" font-weight="bold" font-size="14.00">/SRR5487372</text>
<text text-anchor="start" x="428" y="-89.8" font-family="Times,serif" font-size="14.00">SRR5487372.sra</text>
<text text-anchor="start" x="428" y="-75.8" font-family="Times,serif" font-size="14.00">SRR5487372_1.fastq</text>
<text text-anchor="start" x="428" y="-61.8" font-family="Times,serif" font-size="14.00">SRR5487372_2.fastq</text>
</g>
<!-- /data&#45;&#45;/SRR5487372 -->
<g id="edge4" class="edge">
<title>/data&#45;&#45;/SRR5487372</title>
<path fill="none" stroke="black" d="M332.25,-86C361.76,-86 392.68,-86 419.95,-86"/>
</g>
<!-- /Bos_taurus.UMD3.1.87_index -->
<g id="node7" class="node">
<title>/Bos_taurus.UMD3.1.87_index</title>
<polygon fill="none" stroke="black" points="629.5,-36 626.5,-40 605.5,-40 602.5,-36 377.5,-36 377.5,0 629.5,0 629.5,-36"/>
<text text-anchor="start" x="385.5" y="-21.8" font-family="Times,serif" font-weight="bold" font-size="14.00">/Bos_taurus.UMD3.1.87_index</text>
<text text-anchor="start" x="385.5" y="-7.8" font-family="Times,serif" font-size="14.00">bof</text>
</g>
<!-- /data&#45;&#45;/Bos_taurus.UMD3.1.87_index -->
<g id="edge5" class="edge">
<title>/data&#45;&#45;/Bos_taurus.UMD3.1.87_index</title>
<path fill="none" stroke="black" d="M332.34,-53.62C344.36,-50.61 356.41,-47.68 368,-45 381.23,-41.94 395.23,-38.9 409.01,-36.03"/>
</g>
<!-- /output -->
<g id="node14" class="node">
<title>/output</title>
<polygon fill="none" stroke="black" points="1040,-862 1037,-866 1016,-866 1013,-862 675,-862 675,-728 1040,-728 1040,-862"/>
<text text-anchor="start" x="828" y="-847.8" font-family="Times,serif" font-weight="bold" font-size="14.00">/output</text>
<text text-anchor="start" x="683" y="-833.8" font-family="Times,serif" font-size="14.00">bam.list</text>
<text text-anchor="start" x="683" y="-819.8" font-family="Times,serif" font-size="14.00">samtools_batch_index.sh</text>
<text text-anchor="start" x="683" y="-805.8" font-family="Times,serif" font-size="14.00">SRR5487372Aligned.sortedByCoord.out.bam</text>
<text text-anchor="start" x="683" y="-791.8" font-family="Times,serif" font-size="14.00">SRR5487372Aligned.sortedByCoord.out.bam.bai</text>
<text text-anchor="start" x="683" y="-777.8" font-family="Times,serif" font-size="14.00">SRR5487372Log.final.out</text>
<text text-anchor="start" x="683" y="-763.8" font-family="Times,serif" font-size="14.00">SRR5487372Log.out</text>
<text text-anchor="start" x="683" y="-749.8" font-family="Times,serif" font-size="14.00">SRR5487372Log.progress.out</text>
<text text-anchor="start" x="683" y="-735.8" font-family="Times,serif" font-size="14.00">SRR5487372SJ.out.tab</text>
</g>
<!-- /STAR&#45;&#45;/output -->
<g id="edge14" class="edge">
<title>/STAR&#45;&#45;/output</title>
<path fill="none" stroke="black" d="M639.08,-763.5C650.82,-765.2 662.83,-766.94 674.87,-768.68"/>
</g>
<!-- /output_2nd_pass -->
<g id="node15" class="node">
<title>/output_2nd_pass</title>
<polygon fill="none" stroke="black" points="944.5,-710 941.5,-714 920.5,-714 917.5,-710 770.5,-710 770.5,-674 944.5,-674 944.5,-710"/>
<text text-anchor="start" x="788.5" y="-695.8" font-family="Times,serif" font-weight="bold" font-size="14.00">/output_2nd_pass</text>
<text text-anchor="start" x="778.5" y="-681.8" font-family="Times,serif" font-size="14.00">samtools_sort_bam.sh</text>
</g>
<!-- /STAR&#45;&#45;/output_2nd_pass -->
<g id="edge15" class="edge">
<title>/STAR&#45;&#45;/output_2nd_pass</title>
<path fill="none" stroke="black" d="M639.08,-724.12C683.14,-717.61 730.87,-710.56 770.35,-704.73"/>
</g>
<!-- /gatk_tmp -->
<g id="node16" class="node">
<title>/gatk_tmp</title>
<polygon fill="none" stroke="black" points="905,-488 902,-492 881,-492 878,-488 810,-488 810,-452 905,-452 905,-488"/>
<text text-anchor="start" x="818" y="-467.3" font-family="Times,serif" font-weight="bold" font-size="14.00">/gatk_tmp</text>
</g>
<!-- /SplitNCigarReads&#45;&#45;/gatk_tmp -->
<g id="edge16" class="edge">
<title>/SplitNCigarReads&#45;&#45;/gatk_tmp</title>
<path fill="none" stroke="black" d="M586.58,-470C656.06,-470 753.15,-470 809.97,-470"/>
</g>
<!-- /my_database -->
<g id="node17" class="node">
<title>/my_database</title>
<polygon fill="none" stroke="black" points="918.5,-392 915.5,-396 894.5,-396 891.5,-392 796.5,-392 796.5,-356 918.5,-356 918.5,-392"/>
<text text-anchor="start" x="804.5" y="-371.3" font-family="Times,serif" font-weight="bold" font-size="14.00">/my_database</text>
</g>
<!-- /GenomicsDBImport&#45;&#45;/my_database -->
<g id="edge17" class="edge">
<title>/GenomicsDBImport&#45;&#45;/my_database</title>
<path fill="none" stroke="black" d="M592.87,-374C656.41,-374 740.41,-374 796.33,-374"/>
</g>
</g>
</svg>
