<?xml version="1.0" encoding="UTF-8" standalone="no"?>
<!DOCTYPE svg PUBLIC "-//W3C//DTD SVG 1.1//EN"
 "http://www.w3.org/Graphics/SVG/1.1/DTD/svg11.dtd">
<!-- Generated by graphviz version 2.43.0 (0)
 -->
<!-- Title: G Pages: 1 -->
<svg width="396pt" height="538pt"
 viewBox="0.00 0.00 396.00 538.00" xmlns="http://www.w3.org/2000/svg" xmlns:xlink="http://www.w3.org/1999/xlink">
<g id="graph0" class="graph" transform="scale(1 1) rotate(0) translate(4 534)">
<title>G</title>
<polygon fill="white" stroke="transparent" points="-4,4 -4,-534 392,-534 392,4 -4,4"/>
<g id="clust1" class="cluster">
<title>cluster_0</title>
<polygon fill="none" stroke="black" points="8,-8 8,-522 190,-522 190,-8 8,-8"/>
<text text-anchor="middle" x="99" y="-506.8" font-family="Verdana" font-size="14.00">Data cleanup</text>
</g>
<g id="clust2" class="cluster">
<title>cluster_2</title>
<polygon fill="none" stroke="black" points="198,-81 198,-522 380,-522 380,-81 198,-81"/>
<text text-anchor="middle" x="289" y="-506.8" font-family="Verdana" font-size="14.00">Variant discovery</text>
</g>
<!-- node1 -->
<g id="node1" class="node">
<title>node1</title>
<polygon fill="lightgrey" stroke="black" points="43,-454.5 43,-490.5 155,-490.5 155,-454.5 43,-454.5"/>
<text text-anchor="middle" x="99" y="-470" font-family="Verdana" font-size="10.00">Raw RNAseq Reads</text>
</g>
<!-- node2 -->
<g id="node2" class="node">
<title>node2</title>
<polygon fill="lightgrey" stroke="black" points="47.5,-381.5 47.5,-417.5 150.5,-417.5 150.5,-381.5 47.5,-381.5"/>
<text text-anchor="middle" x="99" y="-402.5" font-family="Verdana" font-size="10.00">Map to Reference</text>
<text text-anchor="middle" x="99" y="-391.5" font-family="Verdana" font-size="10.00">(STAR 2&#45;pass)</text>
</g>
<!-- node1&#45;&gt;node2 -->
<g id="edge1" class="edge">
<title>node1&#45;&gt;node2</title>
<path fill="none" stroke="black" d="M99,-454.31C99,-446.29 99,-436.55 99,-427.57"/>
<polygon fill="black" stroke="black" points="102.5,-427.53 99,-417.53 95.5,-427.53 102.5,-427.53"/>
</g>
<!-- node3 -->
<g id="node3" class="node">
<title>node3</title>
<polygon fill="lightgrey" stroke="black" points="30,-308.5 30,-344.5 168,-344.5 168,-308.5 30,-308.5"/>
<text text-anchor="middle" x="99" y="-324" font-family="Verdana" font-size="10.00">Add ReadGroups (Picard)</text>
</g>
<!-- node2&#45;&gt;node3 -->
<g id="edge2" class="edge">
<title>node2&#45;&gt;node3</title>
<path fill="none" stroke="black" d="M99,-381.31C99,-373.29 99,-363.55 99,-354.57"/>
<polygon fill="black" stroke="black" points="102.5,-354.53 99,-344.53 95.5,-354.53 102.5,-354.53"/>
</g>
<!-- node4 -->
<g id="node4" class="node">
<title>node4</title>
<polygon fill="lightgrey" stroke="black" points="15.5,-235.5 15.5,-271.5 182.5,-271.5 182.5,-235.5 15.5,-235.5"/>
<text text-anchor="middle" x="99" y="-251" font-family="Verdana" font-size="10.00">Mark duplicates &amp; sort (Picard)</text>
</g>
<!-- node3&#45;&gt;node4 -->
<g id="edge3" class="edge">
<title>node3&#45;&gt;node4</title>
<path fill="none" stroke="black" d="M99,-308.31C99,-300.29 99,-290.55 99,-281.57"/>
<polygon fill="black" stroke="black" points="102.5,-281.53 99,-271.53 95.5,-281.53 102.5,-281.53"/>
</g>
<!-- node5 -->
<g id="node5" class="node">
<title>node5</title>
<polygon fill="lightgrey" stroke="black" points="48.5,-162.5 48.5,-198.5 149.5,-198.5 149.5,-162.5 48.5,-162.5"/>
<text text-anchor="middle" x="99" y="-178" font-family="Verdana" font-size="10.00">SplitNCigarReads</text>
</g>
<!-- node4&#45;&gt;node5 -->
<g id="edge4" class="edge">
<title>node4&#45;&gt;node5</title>
<path fill="none" stroke="black" d="M99,-235.31C99,-227.29 99,-217.55 99,-208.57"/>
<polygon fill="black" stroke="black" points="102.5,-208.53 99,-198.53 95.5,-208.53 102.5,-208.53"/>
</g>
<!-- node6 -->
<g id="node6" class="node">
<title>node6</title>
<polygon fill="lightgrey" stroke="black" points="45,-89.5 45,-125.5 153,-125.5 153,-89.5 45,-89.5"/>
<text text-anchor="middle" x="99" y="-105" font-family="Verdana" font-size="10.00">Base Recalibration</text>
</g>
<!-- node5&#45;&gt;node6 -->
<g id="edge5" class="edge">
<title>node5&#45;&gt;node6</title>
<path fill="none" stroke="black" d="M99,-162.31C99,-154.29 99,-144.55 99,-135.57"/>
<polygon fill="black" stroke="black" points="102.5,-135.53 99,-125.53 95.5,-135.53 102.5,-135.53"/>
</g>
<!-- node7 -->
<g id="node7" class="node">
<title>node7</title>
<polygon fill="lightgrey" stroke="black" points="15.5,-16.5 15.5,-52.5 182.5,-52.5 182.5,-16.5 15.5,-16.5"/>
<text text-anchor="middle" x="99" y="-32" font-family="Verdana" font-size="10.00">Analysis&#45;Ready RNAseq Reads</text>
</g>
<!-- node6&#45;&gt;node7 -->
<g id="edge6" class="edge">
<title>node6&#45;&gt;node7</title>
<path fill="none" stroke="black" d="M99,-89.31C99,-81.29 99,-71.55 99,-62.57"/>
<polygon fill="black" stroke="black" points="102.5,-62.53 99,-52.53 95.5,-62.53 102.5,-62.53"/>
</g>
<!-- node8 -->
<g id="node8" class="node">
<title>node8</title>
<polygon fill="lightgrey" stroke="black" points="205.5,-454.5 205.5,-490.5 372.5,-490.5 372.5,-454.5 205.5,-454.5"/>
<text text-anchor="middle" x="289" y="-470" font-family="Verdana" font-size="10.00">Analysis&#45;Ready RNAseq Reads</text>
</g>
<!-- node9 -->
<g id="node9" class="node">
<title>node9</title>
<polygon fill="lightgrey" stroke="black" points="241.5,-381.5 241.5,-417.5 336.5,-417.5 336.5,-381.5 241.5,-381.5"/>
<text text-anchor="middle" x="289" y="-402.5" font-family="Verdana" font-size="10.00">HaplotypeCaller</text>
<text text-anchor="middle" x="289" y="-391.5" font-family="Verdana" font-size="10.00">(GVCF mode)</text>
</g>
<!-- node8&#45;&gt;node9 -->
<g id="edge7" class="edge">
<title>node8&#45;&gt;node9</title>
<path fill="none" stroke="black" d="M289,-454.31C289,-446.29 289,-436.55 289,-427.57"/>
<polygon fill="black" stroke="black" points="292.5,-427.53 289,-417.53 285.5,-427.53 292.5,-427.53"/>
</g>
<!-- node10 -->
<g id="node10" class="node">
<title>node10</title>
<polygon fill="lightgrey" stroke="black" points="220,-308.5 220,-344.5 358,-344.5 358,-308.5 220,-308.5"/>
<text text-anchor="middle" x="289" y="-324" font-family="Verdana" font-size="10.00">DBI import of GVCF files </text>
</g>
<!-- node9&#45;&gt;node10 -->
<g id="edge8" class="edge">
<title>node9&#45;&gt;node10</title>
<path fill="none" stroke="black" d="M289,-381.31C289,-373.29 289,-363.55 289,-354.57"/>
<polygon fill="black" stroke="black" points="292.5,-354.53 289,-344.53 285.5,-354.53 292.5,-354.53"/>
</g>
<!-- node11 -->
<g id="node11" class="node">
<title>node11</title>
<polygon fill="lightgrey" stroke="black" points="243.5,-235.5 243.5,-271.5 334.5,-271.5 334.5,-235.5 243.5,-235.5"/>
<text text-anchor="middle" x="289" y="-251" font-family="Verdana" font-size="10.00">GenotypeGVCF</text>
</g>
<!-- node10&#45;&gt;node11 -->
<g id="edge9" class="edge">
<title>node10&#45;&gt;node11</title>
<path fill="none" stroke="black" d="M289,-308.31C289,-300.29 289,-290.55 289,-281.57"/>
<polygon fill="black" stroke="black" points="292.5,-281.53 289,-271.53 285.5,-281.53 292.5,-281.53"/>
</g>
<!-- node12 -->
<g id="node12" class="node">
<title>node12</title>
<polygon fill="lightgrey" stroke="black" points="216.5,-162.5 216.5,-198.5 361.5,-198.5 361.5,-162.5 216.5,-162.5"/>
<text text-anchor="middle" x="289" y="-183.5" font-family="Verdana" font-size="10.00">Variant filtering</text>
<text text-anchor="middle" x="289" y="-172.5" font-family="Verdana" font-size="10.00">(RNAseq&#45;specific settings)</text>
</g>
<!-- node11&#45;&gt;node12 -->
<g id="edge10" class="edge">
<title>node11&#45;&gt;node12</title>
<path fill="none" stroke="black" d="M289,-235.31C289,-227.29 289,-217.55 289,-208.57"/>
<polygon fill="black" stroke="black" points="292.5,-208.53 289,-198.53 285.5,-208.53 292.5,-208.53"/>
</g>
<!-- node13 -->
<g id="node13" class="node">
<title>node13</title>
<polygon fill="lightgrey" stroke="black" points="241,-89.5 241,-125.5 337,-125.5 337,-89.5 241,-89.5"/>
<text text-anchor="middle" x="289" y="-105" font-family="Verdana" font-size="10.00">Filtered variants</text>
</g>
<!-- node12&#45;&gt;node13 -->
<g id="edge11" class="edge">
<title>node12&#45;&gt;node13</title>
<path fill="none" stroke="black" d="M289,-162.31C289,-154.29 289,-144.55 289,-135.57"/>
<polygon fill="black" stroke="black" points="292.5,-135.53 289,-125.53 285.5,-135.53 292.5,-135.53"/>
</g>
</g>
</svg>
